<svg t="1773228700031" class="icon" viewBox="0 0 1341 1024" version="1.1"
  xmlns="http://www.w3.org/2000/svg" p-id="3903" width="200" height="200">
  <path
    d="M1341.786874 953.383204v70.616796H0v-70.616796h1341.786874zM168.558927 77.030346v841.055751H0v-776.852505l168.536344-64.15808zM406.086097 0l935.700777 353.106563v564.979534H406.086097z m-35.319689 0v918.086097H202.230064V64.203246L370.766408 0zM97.919548 179.534227l-27.302752 10.342978v657.569513h27.302752z m378.783345-77.369089v745.236415h79.469302V132.087509l-79.491884-29.944954z m97.106564 36.584333v708.674664h52.979534V158.712773l-53.002117-19.963302z m70.616796 26.647847v682.004235h52.934368V571.122089l-50.540579-2.890614V514.890614l50.540579 4.855328V185.405787l-52.934368-20.008469z m141.233592 53.340861v309.386027l46.06916 4.358504v46.249824l-46.06916-2.619619v271.31122h52.956951V238.701482l-52.956951-19.985886z m70.594213 26.647848v602.038108h53.002117V265.326747l-53.002117-19.963303z m70.661962 26.625264v575.412844h52.934368V291.997177l-52.934368-19.985886zM1068.172195 325.194072v241.411433l50.540578 4.855328v38.57163l-50.540578-2.890614v240.259704h52.956951V345.315455L1068.172195 325.194072z m70.57163 26.647848v495.469301h53.002117V371.94072l-53.002117-20.008469z m70.661962 26.693013v468.889202h61.786874V401.976006l-61.786874-23.26041z m-494.362738 193.580804v275.308398h52.956951V648.129852H722.427664v-75.607622l-7.384615-0.406493z m282.489767 31.028935v244.279463h52.956951V606.1482l-52.956951-3.003528zM300.127029 102.481299L272.869442 112.914608v734.486945h27.257587V102.503881z m697.405787 196.17784v261.239238l52.956951 5.013408V318.645025l-52.934368-19.963303zM715.043049 192.112915v329.28158l7.362032 0.700071V446.464361l45.594919 6.95554V212.076217l-52.956951-19.985885z"
    p-id="3904"></path>
</svg>
