<svg width="32" height="32" viewBox="0 0 32 32" fill="none" xmlns="http://www.w3.org/2000/svg">
<path d="M14.2 12.8C16.6301 12.8 18.6 10.8301 18.6 8.4C18.6 5.96995 16.6301 4 14.2 4C11.7699 4 9.8 5.96995 9.8 8.4C9.8 10.8301 11.7699 12.8 14.2 12.8Z" stroke="black" stroke-width="0.8" stroke-linecap="square"/>
<path d="M9.4 18.8C11.8301 18.8 13.8 16.8301 13.8 14.4C13.8 11.9699 11.8301 10 9.4 10C6.96995 10 5 11.9699 5 14.4C5 16.8301 6.96995 18.8 9.4 18.8Z" stroke="black" stroke-width="0.8" stroke-linecap="square"/>
<path d="M19 18.8C21.4301 18.8 23.4 16.8301 23.4 14.4C23.4 11.9699 21.4301 10 19 10C16.5699 10 14.6 11.9699 14.6 14.4C14.6 16.8301 16.5699 18.8 19 18.8Z" stroke="black" stroke-width="0.8" stroke-linecap="square"/>
<path d="M9.4 26.4001C11.8301 26.4001 13.8 24.4302 13.8 22.0001C13.8 19.57 11.8301 17.6001 9.4 17.6001C6.96995 17.6001 5 19.57 5 22.0001C5 24.4302 6.96995 26.4001 9.4 26.4001Z" stroke="black" stroke-width="0.8" stroke-linecap="square"/>
<path d="M19 26.4001C21.4301 26.4001 23.4 24.4302 23.4 22.0001C23.4 19.57 21.4301 17.6001 19 17.6001C16.5699 17.6001 14.6 19.57 14.6 22.0001C14.6 24.4302 16.5699 26.4001 19 26.4001Z" stroke="black" stroke-width="0.8" stroke-linecap="square"/>
<path d="M14.2 10.9V8.40002" stroke="black" stroke-width="0.8" stroke-linecap="square"/>
<path d="M14.1999 8.40005L12.5999 6.80005" stroke="black" stroke-width="0.8" stroke-linecap="square"/>
<path d="M14.2 8.40005L15.8 6.80005" stroke="black" stroke-width="0.8" stroke-linecap="square"/>
<path d="M9.39995 16.6001V14.1001" stroke="black" stroke-width="0.8" stroke-linecap="square"/>
<path d="M9.4001 14.2001L7.8001 12.6001" stroke="black" stroke-width="0.8" stroke-linecap="square"/>
<path d="M9.39995 14.2001L11 12.6001" stroke="black" stroke-width="0.8" stroke-linecap="square"/>
<path d="M19 16.6001V14.1001" stroke="black" stroke-width="0.8" stroke-linecap="square"/>
<path d="M19 14.2001L17.4 12.6001" stroke="black" stroke-width="0.8" stroke-linecap="square"/>
<path d="M19 14.2001L20.6 12.6001" stroke="black" stroke-width="0.8" stroke-linecap="square"/>
<path d="M9.39995 24.3V21.8" stroke="black" stroke-width="0.8" stroke-linecap="square"/>
<path d="M9.4001 21.9L7.8001 20.3" stroke="black" stroke-width="0.8" stroke-linecap="square"/>
<path d="M9.39995 21.9L11 20.3" stroke="black" stroke-width="0.8" stroke-linecap="square"/>
<path d="M19 20.2001L16.9 23.6001H21.1L19 20.2001Z" stroke="black" stroke-width="0.8" stroke-linecap="square"/>
<path d="M19.2 8.30005L26.2 8.30005" stroke="black" stroke-width="0.8" stroke-linecap="square"/>
<path d="M26.2 6.40002V10.4" stroke="black" stroke-width="0.8" stroke-linecap="square"/>
<path d="M28.2 7.1001V9.7001" stroke="black" stroke-width="0.8" stroke-linecap="square"/>
</svg>
