<svg version="1.0" xmlns="http://www.w3.org/2000/svg" width="800.000000" height="800.000000" viewBox="0 0 800.000000 800.000000" preserveAspectRatio="xMidYMid meet">
  <metadata>
    <rdf:RDF xmlns:rdf="http://www.w3.org/1999/02/22-rdf-syntax-ns#" xmlns:rdfs="http://www.w3.org/2000/01/rdf-schema#" xmlns:dc="http://purl.org/dc/elements/1.1/">
      <rdf:Description dc:format="image/svg+xml" dc:Label="1" dc:ContentProducer="001191330110MACRLGPT8B00000" dc:ProduceID="387402002" dc:ReservedCode1="Rzw3AApDx2oAG+Hz2JG7oZcOK7CHhwAj2w2Kdi4qoGw=" dc:ContentPropagator="001191330110MACRLGPT8B00000" dc:PropagateID="387402002" dc:ReservedCode2="Rzw3AApDx2oAG+Hz2JG7oZcOK7CHhwAj2w2Kdi4qoGw="/>
    </rdf:RDF>
  </metadata>
  <g transform="translate(152.958506,666.461501) scale(0.063182,-0.063182)" fill="#000000" stroke="none">
    <path d="M3861 7514 c-21 -26 -21 -37 -21 -481 l0 -454 81 3 80 3 -1 455 c-1 450 -1 455 -22 477 -31 33 -90 32 -117 -3z"/>
    <path d="M1507 6439 c-49 -29 -47 68 -47 -2214 0 -2321 -3 -2176 53 -2206 17 -10 522 -13 2172 -14 1183 -2 2257 0 2387 3 238 5 238 5 263 30 l25 25 0 2164 0 2165 -29 29 -29 29 -2389 0 c-1680 -1 -2393 -4 -2406 -11z m4562 -156 c0 -5 -82 -80 -181 -168 -99 -88 -237 -212 -307 -275 -249 -225 -505 -456 -1161 -1045 -366 -329 -750 -675 -855 -770 -104 -94 -302 -272 -440 -395 -137 -123 -288 -258 -335 -301 -219 -197 -573 -518 -844 -764 -164 -148 -302 -271 -307 -273 -5 -2 -9 833 -9 1997 l0 2001 2220 0 c1221 0 2220 -3 2219 -7z m131 -2113 l0 -2000 -2220 0 -2220 0 97 89 c54 48 202 182 328 296 127 115 293 266 370 335 77 70 192 174 256 231 64 57 424 381 799 719 376 338 709 638 740 665 31 28 371 334 755 680 385 347 762 687 839 756 78 69 166 149 196 177 30 28 56 51 58 52 1 0 2 -900 2 -2000z"/>
    <path d="M3329 5420 c-165 -25 -305 -134 -397 -307 -71 -135 -163 -201 -293 -211 -135 -9 -253 47 -333 160 -88 123 -86 121 -124 114 -40 -6 -82 -41 -82 -68 0 -49 88 -183 160 -243 173 -144 388 -172 586 -75 100 49 163 113 229 235 63 116 102 157 183 197 60 30 75 33 157 33 77 0 98 -4 147 -27 68 -32 132 -95 172 -169 41 -77 54 -89 95 -89 69 0 105 52 80 114 -19 46 -76 132 -117 179 -106 117 -296 182 -463 157z"/>
    <path d="M5123 3663 l-592 -3 -20 -26 c-28 -35 -26 -69 4 -99 l24 -25 621 0 621 0 24 25 c24 24 31 57 19 90 -8 21 -57 46 -86 43 -13 -2 -289 -4 -615 -5z"/>
    <path d="M4544 2990 c-28 -11 -54 -48 -54 -76 0 -12 9 -33 21 -48 l20 -26 629 0 629 0 20 26 c36 45 20 105 -32 124 -37 12 -1202 13 -1233 0z"/>
    <path d="M3840 1873 c-3 -128 2 -927 6 -938 10 -25 62 -47 94 -40 61 13 59 -4 62 508 2 382 1 468 -10 472 -21 8 -152 6 -152 -2z"/>
  </g>
</svg>