<svg version="1.0" xmlns="http://www.w3.org/2000/svg" width="800.000000" height="800.000000" viewBox="0 0 800.000000 800.000000" preserveAspectRatio="xMidYMid meet">
  <metadata>
    <rdf:RDF xmlns:rdf="http://www.w3.org/1999/02/22-rdf-syntax-ns#" xmlns:rdfs="http://www.w3.org/2000/01/rdf-schema#" xmlns:dc="http://purl.org/dc/elements/1.1/">
      <rdf:Description dc:format="image/svg+xml" dc:Label="1" dc:ContentProducer="001191330110MACRLGPT8B00000" dc:ProduceID="387402003" dc:ReservedCode1="xFjA426z2yWOKUjIevDjNZADn+XWKDuqRgdDz8haSVw=" dc:ContentPropagator="001191330110MACRLGPT8B00000" dc:PropagateID="387402003" dc:ReservedCode2="xFjA426z2yWOKUjIevDjNZADn+XWKDuqRgdDz8haSVw="/>
    </rdf:RDF>
  </metadata>
  <g transform="translate(146.615454,680.398272) scale(0.065132,-0.065132)" fill="#000000" stroke="none">
    <path d="M3850 7510 c-20 -20 -20 -33 -20 -755 l0 -735 65 0 65 0 -2 741 c-3 720 -4 741 -22 755 -28 20 -63 17 -86 -6z"/>
    <path d="M3076 5898 c-31 -44 -20 -78 65 -214 85 -134 204 -329 503 -819 98 -159 187 -298 198 -307 11 -10 35 -18 52 -18 37 0 59 20 104 95 16 28 54 89 83 137 30 48 83 133 118 190 35 57 154 248 265 425 110 177 216 346 233 375 40 64 42 100 8 133 l-24 25 -795 0 -795 0 -15 -22z m1482 -120 c-56 -87 -558 -895 -604 -972 -31 -53 -59 -96 -63 -96 -3 0 -19 24 -35 53 -26 48 -380 628 -431 707 -13 19 -41 64 -62 100 -22 36 -63 102 -91 148 l-52 82 676 0 676 0 -14 -22z"/>
    <path d="M3841 3833 c-16 -16 -166 -210 -334 -433 -167 -223 -340 -454 -385 -513 -70 -94 -82 -114 -82 -148 0 -29 7 -47 25 -64 l24 -25 791 0 c675 0 795 2 819 15 31 16 41 33 41 71 0 40 44 -22 -578 814 -113 151 -214 283 -224 293 -29 25 -63 21 -97 -10z m364 -558 c168 -225 319 -427 336 -448 17 -21 29 -40 27 -43 -5 -4 -1359 -7 -1363 -2 -3 3 188 259 357 478 40 53 129 171 198 263 69 92 128 166 132 164 4 -1 145 -186 313 -412z"/>
    <path d="M3830 1842 c0 -633 2 -720 16 -740 19 -27 54 -28 85 -3 l24 19 1 721 0 721 -63 0 -63 0 0 -718z"/>
  </g>
</svg>