<svg version="1.0" xmlns="http://www.w3.org/2000/svg" width="800.000000" height="800.000000" viewBox="0 0 800.000000 800.000000" preserveAspectRatio="xMidYMid meet">
  <metadata>
    <rdf:RDF xmlns:rdf="http://www.w3.org/1999/02/22-rdf-syntax-ns#" xmlns:rdfs="http://www.w3.org/2000/01/rdf-schema#" xmlns:dc="http://purl.org/dc/elements/1.1/">
      <rdf:Description dc:format="image/svg+xml" dc:Label="1" dc:ContentProducer="001191330110MACRLGPT8B00000" dc:ProduceID="388421276" dc:ReservedCode1="0Qn/VC19hafaRja2j9mfc2thQZNV+4Ft4OtgABoN7qU=" dc:ContentPropagator="001191330110MACRLGPT8B00000" dc:PropagateID="388421276" dc:ReservedCode2="0Qn/VC19hafaRja2j9mfc2thQZNV+4Ft4OtgABoN7qU="/>
    </rdf:RDF>
  </metadata>
  <g transform="translate(121.235100,696.125641) scale(0.071198,-0.071198)" fill="#000000" stroke="none">
    <path d="M3878 7095 c-15 -8 -30 -25 -34 -37 -5 -13 -8 -484 -9 -1048 l0 -1025 -47 -145 c-54 -170 -343 -1092 -417 -1330 -50 -163 -61 -233 -41 -270 21 -40 48 -45 277 -50 l222 -5 3 -963 3 -964 28 -24 c49 -42 115 -28 137 30 7 18 10 344 10 977 l0 949 214 0 215 0 35 34 c27 25 36 41 36 67 0 30 -79 300 -245 839 -35 113 -93 302 -130 420 -36 118 -78 251 -93 295 l-27 80 -5 1068 -5 1069 -28 24 c-32 27 -60 30 -99 9z m52 -2450 c0 -14 50 -180 177 -590 35 -115 93 -304 128 -420 35 -115 68 -223 74 -238 6 -16 11 -30 11 -33 0 -2 -182 -4 -405 -4 -223 0 -405 3 -405 6 0 3 39 130 86 282 47 153 101 327 119 387 19 61 57 182 85 270 28 88 65 206 82 262 18 56 36 100 40 97 4 -3 8 -11 8 -19z"/>
  </g>
</svg>