<svg version="1.0" xmlns="http://www.w3.org/2000/svg" width="800.000000" height="800.000000" viewBox="0 0 800.000000 800.000000" preserveAspectRatio="xMidYMid meet">
  <metadata>
    <rdf:RDF xmlns:rdf="http://www.w3.org/1999/02/22-rdf-syntax-ns#" xmlns:rdfs="http://www.w3.org/2000/01/rdf-schema#" xmlns:dc="http://purl.org/dc/elements/1.1/">
      <rdf:Description dc:format="image/svg+xml" dc:Label="1" dc:ContentProducer="001191330110MACRLGPT8B00000" dc:ProduceID="388421277" dc:ReservedCode1="kLj1lHU4VPuRrcmwfgx4R773NZu1o7tnnMDvtKaKS+8=" dc:ContentPropagator="001191330110MACRLGPT8B00000" dc:PropagateID="388421277" dc:ReservedCode2="kLj1lHU4VPuRrcmwfgx4R773NZu1o7tnnMDvtKaKS+8="/>
    </rdf:RDF>
  </metadata>
  <g transform="translate(158.205353,665.666923) scale(0.062546,-0.062546)" fill="#000000" stroke="none">
    <path d="M3834 7600 c-54 -21 -54 -25 -54 -431 l0 -377 -197 -4 c-223 -3 -248 -10 -312 -84 -44 -49 -53 -76 -60 -169 l-6 -80 -515 -3 c-478 -2 -520 -4 -580 -22 -162 -48 -283 -174 -349 -360 -14 -40 -16 -276 -19 -2355 -2 -1576 1 -2332 8 -2380 31 -204 185 -378 381 -430 46 -13 311 -15 1740 -15 1860 0 1725 -5 1852 62 71 38 172 144 209 218 62 125 58 -48 58 2505 0 2572 5 2382 -63 2509 -40 75 -124 162 -198 204 -107 61 -122 62 -690 64 l-516 2 -6 78 c-6 93 -33 155 -85 198 -60 50 -114 60 -314 60 l-178 0 0 379 0 380 -22 25 c-27 29 -55 38 -84 26z m493 -986 c24 -18 29 -31 35 -85 4 -35 5 -66 2 -69 -8 -7 -952 -12 -983 -5 -22 6 -23 10 -19 65 4 61 23 94 63 111 11 4 212 7 447 6 416 -2 427 -3 455 -23z m1249 -329 c111 -33 204 -125 243 -242 l21 -62 0 -2294 c0 -2028 -2 -2300 -15 -2352 -32 -123 -105 -213 -213 -263 l-57 -27 -1670 -3 c-1464 -2 -1675 0 -1721 13 -66 19 -160 90 -201 152 -68 103 -63 -87 -63 2468 0 2288 0 2312 20 2371 37 109 121 194 230 234 54 19 88 19 1716 20 1436 0 1667 -2 1710 -15z"/>
    <path d="M3807 5058 c-25 -23 -36 -51 -446 -1158 -67 -178 -121 -335 -121 -347 0 -13 11 -35 25 -48 l24 -25 245 0 245 0 3 -531 3 -531 24 -19 c30 -24 83 -25 104 -1 19 21 537 1554 537 1590 0 13 -13 37 -29 53 l-29 29 -226 0 -225 0 -3 486 -3 486 -24 19 c-31 25 -74 24 -104 -3z m2 -1119 c21 -17 42 -19 243 -19 206 0 220 -1 213 -17 -3 -10 -78 -231 -166 -492 -87 -261 -160 -475 -161 -477 -2 -1 -2 137 0 308 4 332 1 356 -44 377 -16 7 -103 11 -246 11 -206 0 -220 1 -213 18 10 23 246 657 298 801 l42 113 5 -302 5 -302 24 -19z"/>
  </g>
</svg>