<svg version="1.0" xmlns="http://www.w3.org/2000/svg" width="800.000000" height="800.000000" viewBox="0 0 800.000000 800.000000" preserveAspectRatio="xMidYMid meet">
  <metadata>
    <rdf:RDF xmlns:rdf="http://www.w3.org/1999/02/22-rdf-syntax-ns#" xmlns:rdfs="http://www.w3.org/2000/01/rdf-schema#" xmlns:dc="http://purl.org/dc/elements/1.1/">
      <rdf:Description dc:format="image/svg+xml" dc:Label="1" dc:ContentProducer="001191330110MACRLGPT8B00000" dc:ProduceID="388421275" dc:ReservedCode1="bvFfve3EBKDyejuUFKVnMTvtgJDSKjQAXGTSJrOhxHw=" dc:ContentPropagator="001191330110MACRLGPT8B00000" dc:PropagateID="388421275" dc:ReservedCode2="bvFfve3EBKDyejuUFKVnMTvtgJDSKjQAXGTSJrOhxHw="/>
    </rdf:RDF>
  </metadata>
  <g transform="translate(157.963482,663.624330) scale(0.062979,-0.062979)" fill="#000000" stroke="none">
    <path d="M3760 7498 c-39 -27 -70 -81 -70 -121 0 -40 27 -94 60 -117 l27 -19 -3 -950 -3 -951 75 0 74 0 0 948 0 949 26 24 c78 73 70 185 -18 239 -47 28 -125 27 -168 -2z"/>
    <path d="M3262 5175 c-56 -47 -56 -47 78 -520 16 -55 59 -208 95 -340 119 -429 317 -1120 327 -1139 7 -13 11 -358 11 -1028 l0 -1009 -30 -32 c-59 -62 -68 -113 -32 -176 28 -50 64 -73 119 -79 93 -9 170 58 170 148 0 46 -13 73 -57 121 l-23 25 3 1010 3 1009 37 120 c36 114 102 350 258 925 39 140 94 341 124 445 90 319 115 414 115 441 0 35 -28 80 -57 93 -16 8 -198 11 -568 11 l-543 0 -30 -25z m1032 -123 c5 -9 -12 -73 -137 -522 -47 -168 -133 -483 -192 -700 -58 -217 -109 -402 -111 -410 -10 -30 2 -71 -266 895 -44 160 -109 390 -144 512 -35 123 -64 225 -64 228 0 8 908 6 914 -3z m-434 -4047 c0 -8 -7 -15 -15 -15 -8 0 -15 7 -15 15 0 8 7 15 15 15 8 0 15 -7 15 -15z"/>
  </g>
</svg>