<svg version="1.0" xmlns="http://www.w3.org/2000/svg" width="800.000000" height="800.000000" viewBox="0 0 800.000000 800.000000" preserveAspectRatio="xMidYMid meet">
  <metadata>
    <rdf:RDF xmlns:rdf="http://www.w3.org/1999/02/22-rdf-syntax-ns#" xmlns:rdfs="http://www.w3.org/2000/01/rdf-schema#" xmlns:dc="http://purl.org/dc/elements/1.1/">
      <rdf:Description dc:format="image/svg+xml" dc:Label="1" dc:ContentProducer="001191330110MACRLGPT8B00000" dc:ProduceID="388421279" dc:ReservedCode1="geh+rbxRcqkcrgFZvPecB/3zW0dnGVCq+qzVeXfqxkc=" dc:ContentPropagator="001191330110MACRLGPT8B00000" dc:PropagateID="388421279" dc:ReservedCode2="geh+rbxRcqkcrgFZvPecB/3zW0dnGVCq+qzVeXfqxkc="/>
    </rdf:RDF>
  </metadata>
  <g transform="translate(-48.300463,882.764522) scale(0.118421,-0.118421)" fill="#000000" stroke="none">
    <path d="M3740 5835 c-8 -10 -12 -101 -13 -337 l-2 -323 -314 -3 c-275 -2 -317 -4 -333 -19 -23 -21 -23 -65 0 -87 17 -15 78 -16 712 -14 l694 3 15 26 c12 22 12 29 0 55 l-14 29 -318 3 -317 2 0 318 c0 356 -1 362 -64 362 -19 0 -39 -7 -46 -15z"/>
    <path d="M3075 4790 c-24 -27 -22 -70 5 -92 20 -17 48 -18 336 -18 l314 0 0 -402 0 -403 60 3 60 4 0 399 0 399 311 2 312 3 19 26 c21 28 18 57 -8 84 -13 13 -104 15 -703 15 -671 0 -688 0 -706 -20z"/>
    <path d="M3675 3770 c-161 -23 -309 -103 -431 -233 -154 -163 -224 -373 -195 -588 60 -453 496 -739 941 -618 135 37 294 142 382 252 56 72 124 213 144 304 23 103 15 281 -16 373 -81 242 -285 433 -529 495 -78 20 -214 27 -296 15z m310 -149 c33 -12 91 -40 129 -62 l68 -41 -198 -199 -199 -199 -195 196 -195 195 30 25 c41 33 138 80 205 99 81 22 275 15 355 -14z m335 -267 c57 -99 80 -171 87 -270 10 -138 -19 -247 -100 -381 -17 -29 -36 -53 -42 -53 -13 0 -385 372 -385 385 0 10 380 395 391 395 3 0 25 -34 49 -76z m-817 -128 l187 -192 -192 -192 -192 -192 -23 27 c-37 47 -80 135 -99 203 -21 79 -24 224 -5 300 21 90 106 245 130 238 3 0 90 -87 194 -192z m471 -472 c99 -103 181 -191 181 -196 0 -20 -126 -86 -203 -107 -149 -40 -336 -20 -461 50 -108 60 -116 38 96 251 103 103 192 188 196 188 5 0 91 -84 191 -186z"/>
  </g>
</svg>